<?xml version="1.0" standalone="no"?>
<!DOCTYPE svg PUBLIC "-//W3C//DTD SVG 20010904//EN"
 "http://www.w3.org/TR/2001/REC-SVG-20010904/DTD/svg10.dtd">
<svg version="1.0" xmlns="http://www.w3.org/2000/svg"
 width="512.000000pt" height="512.000000pt" viewBox="0 0 512.000000 512.000000"
 preserveAspectRatio="xMidYMid meet">

<g transform="translate(0.000000,512.000000) scale(0.100000,-0.100000)"
fill="#000000" stroke="none">
<path d="M3605 4079 c-85 -12 -190 -66 -252 -129 -29 -29 -53 -56 -52 -59 0
-3 41 -32 90 -64 l89 -58 42 35 c52 44 105 60 182 53 143 -13 237 -157 197
-303 -6 -23 -29 -62 -52 -87 l-40 -47 54 -95 54 -95 39 30 c71 56 125 131 156
219 27 77 27 215 0 292 -75 213 -284 339 -507 308z"/>
<path d="M1292 4056 c-34 -13 -80 -35 -101 -49 -240 -159 -272 -506 -65 -710
l47 -47 45 78 c24 42 51 85 59 94 13 15 13 19 -7 40 -87 92 -84 241 6 332 84
83 211 92 312 22 l39 -26 91 56 91 57 -20 26 c-32 41 -115 98 -177 122 -87 35
-235 37 -320 5z"/>
<path d="M3305 3105 c-119 -37 -237 -132 -283 -227 -122 -251 50 -544 346
-589 184 -27 381 58 475 207 69 111 77 259 19 376 -55 111 -155 191 -292 234
-55 17 -210 17 -265 -1z"/>
<path d="M1663 2941 c-106 -50 -112 -199 -11 -261 62 -38 140 -21 192 40 48
57 31 163 -32 209 -44 31 -99 35 -149 12z"/>
<path d="M4068 2400 c-4 -14 -16 -75 -27 -137 -56 -304 -199 -570 -428 -796
-290 -287 -662 -439 -1073 -438 -412 0 -764 143 -1063 430 -207 200 -348 441
-420 721 -14 52 -27 88 -30 80 -3 -8 -55 -361 -117 -783 -91 -631 -109 -771
-98 -784 31 -37 213 -182 319 -252 329 -221 666 -351 1064 -412 172 -27 533
-32 685 -11 313 44 631 145 880 280 244 131 560 371 560 425 0 19 -235 1648
-244 1687 -1 9 -5 4 -8 -10z"/>
<path d="M2465 2271 c-101 -7 -137 -22 -174 -77 -50 -72 -33 -189 34 -240 37
-28 159 -77 219 -88 32 -6 57 -1 128 25 139 52 189 104 190 199 0 86 -51 158
-130 180 -38 10 -113 11 -267 1z"/>
</g>
</svg>
