<?xml version="1.0" encoding="UTF-8"?>
<svg version="1.1" xmlns="http://www.w3.org/2000/svg" width="64" height="64">
<path d="M0 0 C0.66 1.98 1.32 3.96 2 6 C2.66 6 3.32 6 4 6 C4.66 4.02 5.32 2.04 6 0 C11.03475615 -0.31467226 14.48107888 0.34701113 19.1328125 2.265625 C21.38211055 3.15028616 23.61575535 3.62746177 26 4 C25.50168276 7.68754757 24.89932357 9.60490662 22 12 C22.66 13.65 23.32 15.3 24 17 C23.56429687 17.4846875 23.12859375 17.969375 22.6796875 18.46875 C18.99942805 22.61103336 15.56532599 26.81518639 12.359375 31.3359375 C9.76989185 34.50582205 7.29923443 35.23355794 3.4375 35.8125 C1.06382338 36.23308509 1.06382338 36.23308509 -1 37 C-2.61006032 39.43562001 -2.61006032 39.43562001 -3 42 C-4 43 -4 43 -5.76586914 43.11352539 C-6.51473389 43.10828857 -7.26359863 43.10305176 -8.03515625 43.09765625 C-8.84404297 43.09443359 -9.65292969 43.09121094 -10.48632812 43.08789062 C-11.33646484 43.07951172 -12.18660156 43.07113281 -13.0625 43.0625 C-13.91650391 43.05798828 -14.77050781 43.05347656 -15.65039062 43.04882812 C-17.76695663 43.03700373 -19.88348685 43.01906769 -22 43 C-22.57641602 41.11352539 -22.57641602 41.11352539 -23 39 C-19.83393078 34.29641473 -15.17983904 31.14773814 -10 29 C-11.20381448 26.50638429 -12.45428722 24.31856917 -14 22 C-13.731875 21.113125 -13.46375 20.22625 -13.1875 19.3125 C-12.64104485 16.0227449 -12.64104485 16.0227449 -14.51953125 14.0078125 C-15.8217086 12.64656201 -17.15893114 11.31785129 -18.53125 10.02734375 C-20 8 -20 8 -19.71875 5.25390625 C-19.4815625 4.51011719 -19.244375 3.76632813 -19 3 C-17.948125 2.87625 -16.89625 2.7525 -15.8125 2.625 C-12.14582741 2.17861347 -12.14582741 2.17861347 -9.5 0.9375 C-6.26025966 -0.27740263 -3.42919399 -0.1344782 0 0 Z " fill="#FCD4AB" transform="translate(29,21)"/>
<path d="M0 0 C0.66 1.98 1.32 3.96 2 6 C2.66 6 3.32 6 4 6 C4.66 4.02 5.32 2.04 6 0 C11.65394631 -0.34615998 15.03006806 0.56574762 20 3 C19.57406501 7.39440251 16.60122716 9.70138586 13.5625 12.5625 C10.75388959 15.24884055 8.17161147 17.74258279 6 21 C3.2265625 21.54296875 3.2265625 21.54296875 0 21 C-2.1709995 19.13531961 -3.82436234 17.48191233 -5.625 15.3125 C-6.0890625 14.78205078 -6.553125 14.25160156 -7.03125 13.70507812 C-9.77806214 10.54314042 -12.40296334 7.28592198 -15 4 C-9.77228537 0.95842058 -6.07328688 -0.50610724 0 0 Z " fill="#F4EBC6" transform="translate(29,21)"/>
<path d="M0 0 C4 0 4 0 5.640625 1.43359375 C6.17171875 2.09488281 6.7028125 2.75617187 7.25 3.4375 C7.85199219 4.15808594 8.45398438 4.87867188 9.07421875 5.62109375 C10.39592616 7.25379113 11.71068221 8.89213299 13.01953125 10.53515625 C13.69371094 11.34855469 14.36789063 12.16195312 15.0625 13 C15.67222656 13.763125 16.28195313 14.52625 16.91015625 15.3125 C18.95729239 17.26507934 18.95729239 17.26507934 22.06640625 17.40625 C26.05156992 16.85437647 27.45353955 14.99583582 30 12 C30.36805488 19.48378246 30.36805488 19.48378246 28.77734375 21.71484375 C25.83256811 23.84414306 23.25105779 23.77046266 19.69921875 23.6875 C14.42877888 22.34510142 11.45893607 17.95306979 8 14 C7.071875 13.2575 6.14375 12.515 5.1875 11.75 C2.62051941 9.69641553 0.76414251 7.78191704 -1 5 C-0.75 2.1875 -0.75 2.1875 0 0 Z " fill="#E75745" transform="translate(10,24)"/>
<path d="M0 0 C2.99220268 1.36370299 5.29026529 2.94908083 7.75 5.125 C8.67039062 5.93324219 8.67039062 5.93324219 9.609375 6.7578125 C10.06828125 7.16773438 10.5271875 7.57765625 11 8 C10.125 11.875 10.125 11.875 9 13 C7.65732587 13.08631874 6.31025678 13.10706473 4.96484375 13.09765625 C4.15595703 13.09443359 3.34707031 13.09121094 2.51367188 13.08789062 C1.66353516 13.07951172 0.81339844 13.07113281 -0.0625 13.0625 C-0.91650391 13.05798828 -1.77050781 13.05347656 -2.65039062 13.04882812 C-4.76695663 13.03700373 -6.88348685 13.01906769 -9 13 C-9.58300781 11.11572266 -9.58300781 11.11572266 -10 9 C-8.671875 7.1484375 -8.671875 7.1484375 -6.75 5.375 C-6.12609375 4.78460938 -5.5021875 4.19421875 -4.859375 3.5859375 C-3 2 -3 2 0 0 Z " fill="#9A64A1" transform="translate(16,51)"/>
<path d="M0 0 C3.96 0 7.92 0 12 0 C12 1.32 12 2.64 12 4 C10.35 4.33 8.7 4.66 7 5 C7.2784375 5.9590625 7.2784375 5.9590625 7.5625 6.9375 C7.706875 7.618125 7.85125 8.29875 8 9 C7.67 9.33 7.34 9.66 7 10 C9.97 10.495 9.97 10.495 13 11 C13 11.99 13 12.98 13 14 C8.71 14 4.42 14 0 14 C1 10 1 10 3 7 C2.505 6.5875 2.01 6.175 1.5 5.75 C0 4 0 4 0 0 Z " fill="#64DDB9" transform="translate(0,6)"/>
<path d="M0 0 C2.49361571 1.20381448 4.68143083 2.45428722 7 4 C7.928125 3.01 7.928125 3.01 8.875 2 C11 0 11 0 13 0 C12.45276317 3.37462715 11.9451 5.08235 10 8 C10.495 8.433125 10.99 8.86625 11.5 9.3125 C13 11 13 11 13 14 C10.03824877 13.38722388 8.61941217 12.74627478 6 11 C5.566875 11.495 5.13375 11.99 4.6875 12.5 C3 14 3 14 0 14 C0.61277612 11.03824877 1.25372522 9.61941217 3 7 C2.505 6.5875 2.01 6.175 1.5 5.75 C0 4 0 4 0 0 Z " fill="#F39C1D" transform="translate(51,6)"/>
<path d="M0 0 C1.65 0.33 3.3 0.66 5 1 C4.52379711 5.37653129 3.33100111 7.06538005 -0.0625 9.8125 C-0.79597656 10.41707031 -1.52945313 11.02164063 -2.28515625 11.64453125 C-2.85105469 12.09183594 -3.41695312 12.53914063 -4 13 C-6.475 12.01 -6.475 12.01 -9 11 C-8.60167969 10.54109375 -8.20335937 10.0821875 -7.79296875 9.609375 C-5.08857938 6.47728415 -2.42008229 3.36122541 0 0 Z " fill="#E75745" transform="translate(50,24)"/>
<path d="M0 0 C2.55263088 2.274694 3.84144815 4.43202693 5.1875 7.5625 C5.53167969 8.34753906 5.87585938 9.13257813 6.23046875 9.94140625 C7 12 7 12 7 14 C7.66 14 8.32 14 9 14 C9.18175781 13.40832031 9.36351562 12.81664062 9.55078125 12.20703125 C10.95667057 7.787492 12.37527181 3.87459875 15 0 C16.11346788 2.80033839 16.03510273 3.90143703 15.00390625 6.796875 C14.52824219 7.77140625 14.05257812 8.7459375 13.5625 9.75 C13.08941406 10.73484375 12.61632813 11.7196875 12.12890625 12.734375 C11.75636719 13.48203125 11.38382813 14.2296875 11 15 C8.125 15.1875 8.125 15.1875 5 15 C2.98496425 11.97744638 2.10041857 9.43880802 1 6 C0.34588315 4.32836805 -0.31653318 2.65984798 -1 1 C-0.67 0.67 -0.34 0.34 0 0 Z " fill="#D2B797" transform="translate(24,27)"/>
<path d="M0 0 C0.99 0 1.98 0 3 0 C3 1.65 3 3.3 3 5 C4.65 5 6.3 5 8 5 C8 5.99 8 6.98 8 8 C6.35 8 4.7 8 3 8 C3 9.98 3 11.96 3 14 C2.01 14 1.02 14 0 14 C0 12.02 0 10.04 0 8 C-1.65 8 -3.3 8 -5 8 C-5 7.01 -5 6.02 -5 5 C-3.35 5 -1.7 5 0 5 C0 3.35 0 1.7 0 0 Z " fill="#FF5363" transform="translate(23,0)"/>
<path d="M0 0 C3 1 3 1 3.8984375 2.796875 C4 5 4 5 2.6015625 7.140625 C1.94929688 7.83671875 1.29703125 8.5328125 0.625 9.25 C-0.02210937 9.95640625 -0.66921875 10.6628125 -1.3359375 11.390625 C-3 13 -3 13 -4 13 C-4.33 9.7 -4.66 6.4 -5 3 C-3.68 2.34 -2.36 1.68 -1 1 C-0.67 0.67 -0.34 0.34 0 0 Z " fill="#F9C597" transform="translate(49,33)"/>
<path d="M0 0 C4.29 0 8.58 0 13 0 C13 0.99 13 1.98 13 3 C8.71 3 4.42 3 0 3 C0 2.01 0 1.02 0 0 Z " fill="#3B97D1" transform="translate(35,5)"/>
<path d="M0 0 C0.99 0 1.98 0 3 0 C3 0.99 3 1.98 3 3 C2.01 3 1.02 3 0 3 C0 2.01 0 1.02 0 0 Z " fill="#3D98CE" transform="translate(40,11)"/>
<path d="M0 0 C0.99 0 1.98 0 3 0 C3 0.99 3 1.98 3 3 C2.01 3 1.02 3 0 3 C0 2.01 0 1.02 0 0 Z " fill="#3997D1" transform="translate(40,0)"/>
</svg>
