<?xml version="1.0" encoding="UTF-8"?>
<svg version="1.1" xmlns="http://www.w3.org/2000/svg" width="512" height="512">
<path d="M0 0 C0.86795197 -0.00902847 1.73590393 -0.01805695 2.63015747 -0.02735901 C4.46417804 -0.04184836 6.29825014 -0.05074498 8.13232422 -0.05444336 C10.92895166 -0.06633667 13.72336945 -0.11553005 16.51953125 -0.16601562 C18.30467677 -0.17548092 20.0898358 -0.18271545 21.875 -0.1875 C23.12215286 -0.21679848 23.12215286 -0.21679848 24.39450073 -0.24668884 C25.57569992 -0.23757225 25.57569992 -0.23757225 26.78076172 -0.22827148 C27.80857254 -0.23587746 27.80857254 -0.23587746 28.85714722 -0.24363708 C32.37819998 0.73437379 34.90709187 2.47901681 37.0703125 5.37109375 C37.90903608 8.38512706 37.83106914 11.27230672 37.75146484 14.3840332 C37.75218805 15.29655696 37.75291126 16.20908072 37.75365639 17.14925671 C37.74918742 20.0951975 37.70355058 23.03884332 37.65625 25.984375 C37.64742514 27.8061005 37.64130601 29.62784119 37.63793945 31.44958496 C37.60651844 38.194487 37.52275051 44.93906307 37.4453125 51.68359375 C37.3215625 66.76046875 37.1978125 81.83734375 37.0703125 97.37109375 C80.6303125 97.37109375 124.1903125 97.37109375 169.0703125 97.37109375 C168.83283889 67.31864692 168.83283889 67.31864692 168.52978516 37.2668457 C168.50268555 31.44958496 168.50268555 31.44958496 168.49765015 28.72477722 C168.48844675 26.82491117 168.4673644 24.92507982 168.43685913 23.0254364 C168.39291315 20.14435121 168.38687656 17.2654035 168.38916016 14.3840332 C168.36757151 13.5401344 168.34598286 12.6962356 168.32374001 11.82676411 C168.38245602 6.28998213 168.38245602 6.28998213 170.30160809 3.72624016 C173.09548091 1.22939753 175.58999809 -0.25544592 179.34399414 -0.24414062 C180.12823257 -0.25344604 180.91247101 -0.26275146 181.72047424 -0.27233887 C182.96292152 -0.24774597 182.96292152 -0.24774597 184.23046875 -0.22265625 C185.09796249 -0.22269653 185.96545624 -0.22273682 186.85923767 -0.22277832 C188.68561077 -0.21743688 190.51198434 -0.1999131 192.33813477 -0.17089844 C195.12783251 -0.12898108 197.91511791 -0.12983906 200.70507812 -0.13671875 C202.48439171 -0.12622717 204.26369291 -0.11328924 206.04296875 -0.09765625 C206.87329117 -0.09745483 207.70361359 -0.09725342 208.55909729 -0.0970459 C213.17155686 -0.00308338 216.38597692 0.29477611 220.0703125 3.37109375 C222.81004198 7.2124985 222.33661713 11.57123695 222.29736328 16.08691406 C222.29765533 16.96531952 222.29794739 17.84372498 222.29824829 18.74874878 C222.29685617 21.6490063 222.28130044 24.54900617 222.265625 27.44921875 C222.26189445 29.46132263 222.25904768 31.47342832 222.25704956 33.48553467 C222.2494164 38.77918521 222.22977057 44.07272586 222.2076416 49.36633301 C222.18717639 54.76894647 222.17804639 60.1715777 222.16796875 65.57421875 C222.14652443 76.17322534 222.11239225 86.77215041 222.0703125 97.37109375 C223.23018677 97.36443192 224.39006104 97.35777008 225.58508301 97.35090637 C236.53137292 97.29001428 247.47762834 97.24508219 258.42404938 97.21565723 C264.05132625 97.20002088 269.67846606 97.17881952 275.30566406 97.14477539 C280.739185 97.1121098 286.17257434 97.09422546 291.60618591 97.08646202 C293.67616344 97.08093146 295.746134 97.07013163 297.8160553 97.05390358 C300.72192791 97.03203379 303.62726107 97.02913084 306.53320312 97.03051758 C307.38341034 97.01973175 308.23361755 97.00894592 309.10958862 96.99783325 C314.99092994 97.02807863 320.98371694 97.65365072 325.59897614 101.71693134 C329.46911841 106.11262044 331.32178712 110.40129371 331.31640816 116.21864033 C331.32039025 117.17259577 331.32437235 118.12655121 331.32847512 119.1094144 C331.32264943 120.14929718 331.31682375 121.18917996 331.31082153 122.26057434 C331.31338481 123.92694656 331.31338481 123.92694656 331.31599987 125.62698287 C331.31929915 129.35661174 331.30828365 133.08606147 331.29736328 136.81567383 C331.29679926 139.48633225 331.29702744 142.15697964 331.29824829 144.82763672 C331.29929676 150.58105645 331.29302409 156.33443081 331.28177261 162.08783913 C331.26551549 170.40628508 331.26030939 178.7247091 331.25779663 187.04316922 C331.25341986 200.53945273 331.24011125 214.03571205 331.22119141 227.53198242 C331.20283214 240.64200723 331.18867586 253.75202548 331.18017578 266.86206055 C331.17965033 267.67022273 331.17912489 268.47838492 331.17858352 269.31103686 C331.17597343 273.36536696 331.17344602 277.4196971 331.17095971 281.47402728 C331.15022778 315.1064003 331.11500274 348.73874406 331.0703125 382.37109375 C332.17890625 382.33628906 333.2875 382.30148437 334.4296875 382.265625 C335.89321398 382.23748026 337.35675689 382.21018083 338.8203125 382.18359375 C339.91472656 382.14588867 339.91472656 382.14588867 341.03125 382.10742188 C344.28081436 382.06310963 346.63425523 382.13570615 349.5234375 383.6953125 C353.41739613 387.91376769 352.33327966 394.37012944 352.3828125 399.74609375 C352.41181641 400.78765625 352.44082031 401.82921875 352.47070312 402.90234375 C352.53443286 410.56952127 352.53443286 410.56952127 350.23828125 414.53515625 C346.2334644 417.92662277 342.13633636 417.51400752 337.1563282 417.50252151 C335.92762358 417.50560047 335.92762358 417.50560047 334.67409664 417.50874162 C331.90561054 417.51443481 329.13717382 417.51295152 326.36868286 417.51153564 C324.3732532 417.51411794 322.37782405 417.51713072 320.38239563 417.52053905 C314.88046243 417.52862804 309.37854228 417.53039967 303.87660384 417.53113651 C297.95012164 417.53298375 292.02364625 417.54052935 286.09716797 417.54727173 C272.45409282 417.56157777 258.81101863 417.56738306 245.16793769 417.57196367 C238.428648 417.57429854 231.68935916 417.57790104 224.95007014 417.58165905 C201.88861041 417.59449456 178.82715116 417.60521433 155.76568794 417.60866165 C154.31774787 417.60888329 152.86980779 417.60910507 151.42186772 417.609327 C149.97039981 417.60954764 148.5189319 417.60976813 147.06746399 417.60998845 C144.15549032 417.61043101 141.24351664 417.61087812 138.33154297 417.61132812 C137.60954156 417.61143752 136.88754015 417.61154691 136.14365991 417.61165961 C112.72376793 417.61529162 89.30390688 417.6312171 65.88402675 417.65451849 C41.13291421 417.67909944 16.38181937 417.69283366 -8.36930573 417.69402957 C-11.08487901 417.69420103 -13.80045227 417.69441646 -16.51602554 417.694664 C-17.51902787 417.69474765 -17.51902787 417.69474765 -18.54229287 417.694833 C-28.64751013 417.6959135 -38.75269881 417.70523311 -48.85790634 417.71884918 C-60.34758551 417.73421528 -71.83721167 417.73939129 -83.32689916 417.73111108 C-89.19275122 417.72719232 -95.05849642 417.72819374 -100.92433548 417.74216843 C-106.28953304 417.75483394 -111.65454262 417.75377494 -117.01973964 417.74157771 C-118.96521909 417.73960791 -120.91071152 417.74275776 -122.85617267 417.75142208 C-125.49235334 417.76242335 -128.12785981 417.75509189 -130.76402092 417.74303055 C-131.90778679 417.75442334 -131.90778679 417.75442334 -133.07465905 417.76604629 C-137.53632099 417.7217104 -140.39867024 417.15005055 -143.9296875 414.37109375 C-146.96206191 409.82253214 -146.25861929 405.34628593 -146.2421875 399.99609375 C-146.25830078 398.95453125 -146.27441406 397.91296875 -146.29101562 396.83984375 C-146.29716515 387.2219806 -146.29716515 387.2219806 -142.9296875 383.37109375 C-139.74144182 381.77697091 -136.30072088 382.2693464 -132.8046875 382.30859375 C-132.05058594 382.31310547 -131.29648438 382.31761719 -130.51953125 382.32226562 C-128.65621623 382.33405876 -126.79294195 382.35199433 -124.9296875 382.37109375 C-124.93120638 381.80070374 -124.93272526 381.23031372 -124.93429017 380.64263916 C-125.02381674 346.8311884 -125.09244092 313.01976461 -125.13394882 279.20822114 C-125.1389516 275.14776572 -125.14412889 271.08731053 -125.14941406 267.02685547 C-125.1504633 266.21849735 -125.15151255 265.41013923 -125.15259358 264.57728541 C-125.16999534 251.49116977 -125.20153176 238.40512447 -125.23829868 225.31905055 C-125.2757145 211.88994894 -125.29792471 198.46088415 -125.30604148 185.03173256 C-125.31152793 176.74625536 -125.32885178 168.460977 -125.36135337 160.17556101 C-125.38250918 154.49271573 -125.38888514 148.80997314 -125.38369301 143.12709135 C-125.38113284 139.84906369 -125.38722874 136.57145614 -125.4065094 133.2934742 C-125.42640969 129.7358184 -125.42162546 126.17901337 -125.41070557 122.62133789 C-125.42235693 121.59019363 -125.4340083 120.55904938 -125.44601274 119.49665833 C-125.38375376 111.99255044 -123.95357639 106.39498264 -118.5546875 100.99609375 C-112.67925713 97.35892257 -107.32302865 97.08782502 -100.61962891 97.14404297 C-99.70191711 97.14375092 -98.78420532 97.14345886 -97.83868408 97.14315796 C-94.81944165 97.1445461 -91.80044908 97.16008308 -88.78125 97.17578125 C-86.68232356 97.17951321 -84.58339536 97.18235932 -82.48446655 97.18435669 C-76.97055214 97.19197872 -71.45674374 97.21161497 -65.94287109 97.23376465 C-60.31218906 97.25425387 -54.68148984 97.26336499 -49.05078125 97.2734375 C-38.01037019 97.29486217 -26.97003767 97.32898089 -15.9296875 97.37109375 C-15.93968025 95.69645805 -15.93968025 95.69645805 -15.94987488 93.98799133 C-16.01068594 83.46753632 -16.05566017 72.94711696 -16.08512402 62.42652607 C-16.10078089 57.01775602 -16.12201976 51.60912785 -16.15600586 46.20043945 C-16.18859823 40.98089897 -16.20654035 35.76149497 -16.21431923 30.54186058 C-16.21986293 28.55034423 -16.23068838 26.55883536 -16.24687767 24.56737709 C-16.26865017 21.77823358 -16.27165448 18.98965426 -16.27026367 16.20043945 C-16.2810495 15.37684937 -16.29183533 14.55325928 -16.302948 13.70471191 C-16.27801925 9.08558878 -15.87560008 6.15237787 -12.9296875 2.37109375 C-9.26453642 -0.5290655 -4.46179464 0.02863883 0 0 Z " fill="#FEC933" transform="translate(152.9296875,87.62890625)"/>
<path d="M0 0 C0.86795197 -0.00902847 1.73590393 -0.01805695 2.63015747 -0.02735901 C4.46417804 -0.04184836 6.29825014 -0.05074498 8.13232422 -0.05444336 C10.92895166 -0.06633667 13.72336945 -0.11553005 16.51953125 -0.16601562 C18.30467677 -0.17548092 20.0898358 -0.18271545 21.875 -0.1875 C23.12215286 -0.21679848 23.12215286 -0.21679848 24.39450073 -0.24668884 C25.57569992 -0.23757225 25.57569992 -0.23757225 26.78076172 -0.22827148 C27.80857254 -0.23587746 27.80857254 -0.23587746 28.85714722 -0.24363708 C32.37819998 0.73437379 34.90709187 2.47901681 37.0703125 5.37109375 C37.90903608 8.38512706 37.83106914 11.27230672 37.75146484 14.3840332 C37.75218805 15.29655696 37.75291126 16.20908072 37.75365639 17.14925671 C37.74918742 20.0951975 37.70355058 23.03884332 37.65625 25.984375 C37.64742514 27.8061005 37.64130601 29.62784119 37.63793945 31.44958496 C37.60651844 38.194487 37.52275051 44.93906307 37.4453125 51.68359375 C37.3215625 66.76046875 37.1978125 81.83734375 37.0703125 97.37109375 C80.6303125 97.37109375 124.1903125 97.37109375 169.0703125 97.37109375 C168.83283889 67.31864692 168.83283889 67.31864692 168.52978516 37.2668457 C168.50268555 31.44958496 168.50268555 31.44958496 168.49765015 28.72477722 C168.48844675 26.82491117 168.4673644 24.92507982 168.43685913 23.0254364 C168.39291315 20.14435121 168.38687656 17.2654035 168.38916016 14.3840332 C168.36757151 13.5401344 168.34598286 12.6962356 168.32374001 11.82676411 C168.38245602 6.28998213 168.38245602 6.28998213 170.30160809 3.72624016 C173.09548091 1.22939753 175.58999809 -0.25544592 179.34399414 -0.24414062 C180.12823257 -0.25344604 180.91247101 -0.26275146 181.72047424 -0.27233887 C182.96292152 -0.24774597 182.96292152 -0.24774597 184.23046875 -0.22265625 C185.09796249 -0.22269653 185.96545624 -0.22273682 186.85923767 -0.22277832 C188.68561077 -0.21743688 190.51198434 -0.1999131 192.33813477 -0.17089844 C195.12783251 -0.12898108 197.91511791 -0.12983906 200.70507812 -0.13671875 C202.48439171 -0.12622717 204.26369291 -0.11328924 206.04296875 -0.09765625 C206.87329117 -0.09745483 207.70361359 -0.09725342 208.55909729 -0.0970459 C213.17155686 -0.00308338 216.38597692 0.29477611 220.0703125 3.37109375 C222.81004198 7.2124985 222.33661713 11.57123695 222.29736328 16.08691406 C222.29765533 16.96531952 222.29794739 17.84372498 222.29824829 18.74874878 C222.29685617 21.6490063 222.28130044 24.54900617 222.265625 27.44921875 C222.26189445 29.46132263 222.25904768 31.47342832 222.25704956 33.48553467 C222.2494164 38.77918521 222.22977057 44.07272586 222.2076416 49.36633301 C222.18717639 54.76894647 222.17804639 60.1715777 222.16796875 65.57421875 C222.14652443 76.17322534 222.11239225 86.77215041 222.0703125 97.37109375 C223.23018677 97.36443192 224.39006104 97.35777008 225.58508301 97.35090637 C236.53137292 97.29001428 247.47762834 97.24508219 258.42404938 97.21565723 C264.05132625 97.20002088 269.67846606 97.17881952 275.30566406 97.14477539 C280.739185 97.1121098 286.17257434 97.09422546 291.60618591 97.08646202 C293.67616344 97.08093146 295.746134 97.07013163 297.8160553 97.05390358 C300.72192791 97.03203379 303.62726107 97.02913084 306.53320312 97.03051758 C307.38341034 97.01973175 308.23361755 97.00894592 309.10958862 96.99783325 C314.99092994 97.02807863 320.98371694 97.65365072 325.59897614 101.71693134 C329.46911841 106.11262044 331.32178712 110.40129371 331.31640816 116.21864033 C331.32039025 117.17259577 331.32437235 118.12655121 331.32847512 119.1094144 C331.32264943 120.14929718 331.31682375 121.18917996 331.31082153 122.26057434 C331.31338481 123.92694656 331.31338481 123.92694656 331.31599987 125.62698287 C331.31929915 129.35661174 331.30828365 133.08606147 331.29736328 136.81567383 C331.29679926 139.48633225 331.29702744 142.15697964 331.29824829 144.82763672 C331.29929676 150.58105645 331.29302409 156.33443081 331.28177261 162.08783913 C331.26551549 170.40628508 331.26030939 178.7247091 331.25779663 187.04316922 C331.25341986 200.53945273 331.24011125 214.03571205 331.22119141 227.53198242 C331.20283214 240.64200723 331.18867586 253.75202548 331.18017578 266.86206055 C331.17965033 267.67022273 331.17912489 268.47838492 331.17858352 269.31103686 C331.17597343 273.36536696 331.17344602 277.4196971 331.17095971 281.47402728 C331.15022778 315.1064003 331.11500274 348.73874406 331.0703125 382.37109375 C332.17890625 382.33628906 333.2875 382.30148437 334.4296875 382.265625 C335.89321398 382.23748026 337.35675689 382.21018083 338.8203125 382.18359375 C339.91472656 382.14588867 339.91472656 382.14588867 341.03125 382.10742188 C344.28081436 382.06310963 346.63425523 382.13570615 349.5234375 383.6953125 C353.41739613 387.91376769 352.33327966 394.37012944 352.3828125 399.74609375 C352.41181641 400.78765625 352.44082031 401.82921875 352.47070312 402.90234375 C352.53443286 410.56952127 352.53443286 410.56952127 350.23828125 414.53515625 C346.2334644 417.92662277 342.13633636 417.51400752 337.1563282 417.50252151 C335.92762358 417.50560047 335.92762358 417.50560047 334.67409664 417.50874162 C331.90561054 417.51443481 329.13717382 417.51295152 326.36868286 417.51153564 C324.3732532 417.51411794 322.37782405 417.51713072 320.38239563 417.52053905 C314.88046243 417.52862804 309.37854228 417.53039967 303.87660384 417.53113651 C297.95012164 417.53298375 292.02364625 417.54052935 286.09716797 417.54727173 C272.45409282 417.56157777 258.81101863 417.56738306 245.16793769 417.57196367 C238.428648 417.57429854 231.68935916 417.57790104 224.95007014 417.58165905 C201.88861041 417.59449456 178.82715116 417.60521433 155.76568794 417.60866165 C154.31774787 417.60888329 152.86980779 417.60910507 151.42186772 417.609327 C149.97039981 417.60954764 148.5189319 417.60976813 147.06746399 417.60998845 C144.15549032 417.61043101 141.24351664 417.61087812 138.33154297 417.61132812 C137.60954156 417.61143752 136.88754015 417.61154691 136.14365991 417.61165961 C112.72376793 417.61529162 89.30390688 417.6312171 65.88402675 417.65451849 C41.13291421 417.67909944 16.38181937 417.69283366 -8.36930573 417.69402957 C-11.08487901 417.69420103 -13.80045227 417.69441646 -16.51602554 417.694664 C-17.51902787 417.69474765 -17.51902787 417.69474765 -18.54229287 417.694833 C-28.64751013 417.6959135 -38.75269881 417.70523311 -48.85790634 417.71884918 C-60.34758551 417.73421528 -71.83721167 417.73939129 -83.32689916 417.73111108 C-89.19275122 417.72719232 -95.05849642 417.72819374 -100.92433548 417.74216843 C-106.28953304 417.75483394 -111.65454262 417.75377494 -117.01973964 417.74157771 C-118.96521909 417.73960791 -120.91071152 417.74275776 -122.85617267 417.75142208 C-125.49235334 417.76242335 -128.12785981 417.75509189 -130.76402092 417.74303055 C-131.90778679 417.75442334 -131.90778679 417.75442334 -133.07465905 417.76604629 C-137.53632099 417.7217104 -140.39867024 417.15005055 -143.9296875 414.37109375 C-146.96206191 409.82253214 -146.25861929 405.34628593 -146.2421875 399.99609375 C-146.25830078 398.95453125 -146.27441406 397.91296875 -146.29101562 396.83984375 C-146.29716515 387.2219806 -146.29716515 387.2219806 -142.9296875 383.37109375 C-139.74144182 381.77697091 -136.30072088 382.2693464 -132.8046875 382.30859375 C-132.05058594 382.31310547 -131.29648438 382.31761719 -130.51953125 382.32226562 C-128.65621623 382.33405876 -126.79294195 382.35199433 -124.9296875 382.37109375 C-124.93120638 381.80070374 -124.93272526 381.23031372 -124.93429017 380.64263916 C-125.02381674 346.8311884 -125.09244092 313.01976461 -125.13394882 279.20822114 C-125.1389516 275.14776572 -125.14412889 271.08731053 -125.14941406 267.02685547 C-125.1504633 266.21849735 -125.15151255 265.41013923 -125.15259358 264.57728541 C-125.16999534 251.49116977 -125.20153176 238.40512447 -125.23829868 225.31905055 C-125.2757145 211.88994894 -125.29792471 198.46088415 -125.30604148 185.03173256 C-125.31152793 176.74625536 -125.32885178 168.460977 -125.36135337 160.17556101 C-125.38250918 154.49271573 -125.38888514 148.80997314 -125.38369301 143.12709135 C-125.38113284 139.84906369 -125.38722874 136.57145614 -125.4065094 133.2934742 C-125.42640969 129.7358184 -125.42162546 126.17901337 -125.41070557 122.62133789 C-125.42235693 121.59019363 -125.4340083 120.55904938 -125.44601274 119.49665833 C-125.38375376 111.99255044 -123.95357639 106.39498264 -118.5546875 100.99609375 C-112.67925713 97.35892257 -107.32302865 97.08782502 -100.61962891 97.14404297 C-99.70191711 97.14375092 -98.78420532 97.14345886 -97.83868408 97.14315796 C-94.81944165 97.1445461 -91.80044908 97.16008308 -88.78125 97.17578125 C-86.68232356 97.17951321 -84.58339536 97.18235932 -82.48446655 97.18435669 C-76.97055214 97.19197872 -71.45674374 97.21161497 -65.94287109 97.23376465 C-60.31218906 97.25425387 -54.68148984 97.26336499 -49.05078125 97.2734375 C-38.01037019 97.29486217 -26.97003767 97.32898089 -15.9296875 97.37109375 C-15.93968025 95.69645805 -15.93968025 95.69645805 -15.94987488 93.98799133 C-16.01068594 83.46753632 -16.05566017 72.94711696 -16.08512402 62.42652607 C-16.10078089 57.01775602 -16.12201976 51.60912785 -16.15600586 46.20043945 C-16.18859823 40.98089897 -16.20654035 35.76149497 -16.21431923 30.54186058 C-16.21986293 28.55034423 -16.23068838 26.55883536 -16.24687767 24.56737709 C-16.26865017 21.77823358 -16.27165448 18.98965426 -16.27026367 16.20043945 C-16.2810495 15.37684937 -16.29183533 14.55325928 -16.302948 13.70471191 C-16.27801925 9.08558878 -15.87560008 6.15237787 -12.9296875 2.37109375 C-9.26453642 -0.5290655 -4.46179464 0.02863883 0 0 Z M-107.9296875 114.37109375 C-107.9296875 202.81109375 -107.9296875 291.25109375 -107.9296875 382.37109375 C31.3303125 382.37109375 170.5903125 382.37109375 314.0703125 382.37109375 C314.0703125 293.93109375 314.0703125 205.49109375 314.0703125 114.37109375 C283.3803125 114.37109375 252.6903125 114.37109375 221.0703125 114.37109375 C220.4103125 120.31109375 219.7503125 126.25109375 219.0703125 132.37109375 C217.57023599 137.82970549 216.00706275 143.07811169 214.0703125 148.37109375 C213.84327637 149.01175781 213.61624023 149.65242188 213.38232422 150.3125 C208.73610086 163.31535831 201.96878222 174.7994075 193.0703125 185.37109375 C192.07257813 186.56992187 192.07257813 186.56992187 191.0546875 187.79296875 C177.23756905 203.79696926 159.88574806 214.42761749 140.0703125 221.37109375 C139.17957031 221.68691406 138.28882813 222.00273437 137.37109375 222.328125 C125.92984451 226.0681791 114.15144181 226.7377422 102.1953125 226.68359375 C101.53534271 226.68110626 100.87537292 226.67861877 100.19540405 226.67605591 C90.44816206 226.61927529 81.42255293 226.31725918 72.0703125 223.37109375 C71.34908203 223.14534668 70.62785156 222.91959961 69.88476562 222.68701172 C54.01874566 217.5984681 39.62878471 210.4319628 27.0703125 199.37109375 C26.24144531 198.67371094 25.41257813 197.97632813 24.55859375 197.2578125 C-0.80020456 175.39410124 -10.33418401 146.5396182 -14.9296875 114.37109375 C-45.6196875 114.37109375 -76.3096875 114.37109375 -107.9296875 114.37109375 Z " fill="#7856C2" transform="translate(152.9296875,87.62890625)"/>
<path d="M0 0 C30.69 0 61.38 0 93 0 C93.99 6.93 94.98 13.86 96 21 C100.69251794 38.94198035 108.23502638 55.58413934 120 70 C120.42506836 70.52142578 120.85013672 71.04285156 121.28808594 71.58007812 C139.17889177 93.09212307 163.05938127 104.92047984 190 111 C190.76401123 111.17724609 191.52802246 111.35449219 192.31518555 111.53710938 C197.91158502 112.50198829 203.64652871 112.24496919 209.3125 112.25 C209.98950958 112.25067474 210.66651917 112.25134949 211.36404419 112.25204468 C221.56777931 112.23585524 231.11801713 111.78176135 241 109 C242.22847656 108.6596875 243.45695313 108.319375 244.72265625 107.96875 C275.19548791 98.64097526 299.53445785 78.58547373 314.81640625 50.68359375 C323.40150991 34.08819899 326.90244233 18.87801906 329 0 C359.69 0 390.38 0 422 0 C422 27.39 422 54.78 422 83 C409.79 85.31 397.58 87.62 385 90 C376.05239607 91.8783138 367.10986013 93.76186554 358.17181396 95.68209839 C349.70671509 97.49720851 341.22984857 99.25525889 332.75 101 C331.9405896 101.16663147 331.1311792 101.33326294 330.29724121 101.50494385 C316.33166251 104.3735398 302.33604397 107.06852472 288.31542969 109.65429688 C287.58516571 109.78994553 286.85490173 109.92559418 286.10250854 110.06535339 C284.15323807 110.42714009 282.20335437 110.78561866 280.25341797 111.14379883 C276.75001294 111.82147347 273.28019167 112.61921847 269.80517578 113.42944336 C263.26599069 114.95350584 256.70462705 116.33465203 250.125 117.671875 C248.93358902 117.91511505 247.74217804 118.1583551 246.5146637 118.40896606 C242.67687378 119.19144699 238.83848895 119.97095598 235 120.75 C233.67258561 121.01998267 232.34518293 121.29002289 231.01779175 121.56011963 C215.21956486 124.77340879 199.41269817 127.92700319 183.5625 130.875 C172.38815829 132.95361431 161.2578068 135.17020914 150.15161133 137.59130859 C139.20083681 139.9747998 128.22894039 142.25013901 117.25 144.5 C116.29909485 144.69493042 115.3481897 144.88986084 114.36846924 145.09069824 C101.09526811 147.80651049 87.80402635 150.37964735 74.47949219 152.82983398 C64.95348816 154.59624128 55.47343224 156.53666856 46 158.5625 C45.31107666 158.70972504 44.62215332 158.85695007 43.91235352 159.00863647 C38.0462543 160.26366164 32.18221772 161.52818479 26.31884766 162.79589844 C22.98450596 163.5150611 19.64868155 164.22693061 16.3125 164.9375 C14.86133789 165.25473022 14.86133789 165.25473022 13.38085938 165.57836914 C12.48818359 165.76778076 11.59550781 165.95719238 10.67578125 166.15234375 C9.91177002 166.31726318 9.14775879 166.48218262 8.3605957 166.65209961 C6 167 6 167 0 167 C0 111.89 0 56.78 0 0 Z " fill="#FEDF5F" transform="translate(45,202)"/>
<path d="M0 0 C0.9161055 -0.00189835 1.832211 -0.00379669 2.77607727 -0.00575256 C5.79050372 -0.00944408 8.80468694 0.00121744 11.8190918 0.01245117 C13.91562369 0.01364359 16.01215613 0.014096 18.10868835 0.01383972 C22.49404258 0.01540157 26.87931482 0.02367122 31.26464844 0.03710938 C36.89856055 0.05415122 42.53238307 0.05792207 48.16631794 0.05716419 C52.490706 0.05743537 56.81507429 0.06290733 61.1394558 0.07016563 C63.21798745 0.07335667 65.29652134 0.07532072 67.37505531 0.07605934 C70.26960745 0.07821535 73.16406234 0.08694189 76.05859375 0.09765625 C76.92454163 0.09720306 77.7904895 0.09674988 78.68267822 0.09628296 C84.59133185 0.12844122 84.59133185 0.12844122 85.70581055 1.24291992 C85.70581055 6.52291992 85.70581055 11.80291992 85.70581055 17.24291992 C55.01581055 17.24291992 24.32581055 17.24291992 -7.29418945 17.24291992 C-7.29418945 105.68291992 -7.29418945 194.12291992 -7.29418945 285.24291992 C131.96581055 285.24291992 271.22581055 285.24291992 414.70581055 285.24291992 C414.70581055 196.80291992 414.70581055 108.36291992 414.70581055 17.24291992 C384.34581055 17.24291992 353.98581055 17.24291992 322.70581055 17.24291992 C322.70581055 11.63291992 322.70581055 6.02291992 322.70581055 0.24291992 C334.82368564 0.17331989 346.94151294 0.12005776 359.05954742 0.08748341 C364.68682429 0.07184705 370.31396411 0.05064569 375.94116211 0.01660156 C381.37468305 -0.01606403 386.80807238 -0.03394836 392.24168396 -0.04171181 C394.31166148 -0.04724237 396.38163205 -0.0580422 398.45155334 -0.07427025 C401.35742596 -0.09614004 404.26275911 -0.09904299 407.16870117 -0.09765625 C408.01890839 -0.10844208 408.8691156 -0.11922791 409.74508667 -0.13034058 C415.62642798 -0.1000952 421.61921499 0.52547689 426.23447418 4.58875751 C430.10461646 8.98444661 431.95728517 13.27311988 431.9519062 19.0904665 C431.9558883 20.04442194 431.9598704 20.99837739 431.96397316 21.98124057 C431.95814748 23.02112335 431.9523218 24.06100613 431.94631958 25.13240051 C431.94888285 26.79877273 431.94888285 26.79877273 431.95149791 28.49880904 C431.9547972 32.22843791 431.9437817 35.95788765 431.93286133 39.6875 C431.93229731 42.35815843 431.93252549 45.02880581 431.93374634 47.69946289 C431.93479481 53.45288262 431.92852214 59.20625698 431.91727066 64.9596653 C431.90101353 73.27811125 431.89580744 81.59653528 431.89329468 89.91499539 C431.88891791 103.4112789 431.8756093 116.90753822 431.85668945 130.40380859 C431.83833019 143.5138334 431.82417391 156.62385165 431.81567383 169.73388672 C431.81514838 170.5420489 431.81462293 171.35021109 431.81408156 172.18286303 C431.81147148 176.23719313 431.80894407 180.29152327 431.80645776 184.34585345 C431.78572582 217.97822648 431.75050078 251.61057023 431.70581055 285.24291992 C432.8144043 285.20811523 433.92299805 285.17331055 435.06518555 285.13745117 C436.52871203 285.10930643 437.99225494 285.082007 439.45581055 285.05541992 C440.55022461 285.01771484 440.55022461 285.01771484 441.66674805 284.97924805 C444.91631241 284.93493581 447.26975328 285.00753232 450.15893555 286.56713867 C454.05289418 290.78559386 452.96877771 297.24195561 453.01831055 302.61791992 C453.04731445 303.65948242 453.07631836 304.70104492 453.10620117 305.77416992 C453.16993091 313.44134744 453.16993091 313.44134744 450.8737793 317.40698242 C446.86896245 320.79844894 442.7718344 320.38583369 437.79182625 320.37434769 C436.56312163 320.37742664 436.56312163 320.37742664 435.30959469 320.38056779 C432.54110859 320.38626099 429.77267187 320.38477769 427.00418091 320.38336182 C425.00875124 320.38594412 423.0133221 320.3889569 421.01789367 320.39236522 C415.51596048 320.40045421 410.01404032 320.40222584 404.51210189 320.40296268 C398.58561968 320.40480992 392.6591443 320.41235552 386.73266602 320.4190979 C373.08959086 320.43340394 359.44651668 320.43920923 345.80343574 320.44378985 C339.06414605 320.44612471 332.32485721 320.44972721 325.58556819 320.45348522 C302.52410846 320.46632073 279.46264921 320.4770405 256.40118599 320.48048782 C254.95324592 320.48070946 253.50530584 320.48093124 252.05736577 320.48115318 C250.60589786 320.48137382 249.15442995 320.4815943 247.70296204 320.48181462 C244.79098837 320.48225718 241.87901469 320.48270429 238.96704102 320.4831543 C238.24503961 320.48326369 237.5230382 320.48337308 236.77915796 320.48348578 C213.35926598 320.48711779 189.93940492 320.50304327 166.51952479 320.52634466 C141.76841226 320.55092561 117.01731741 320.56465983 92.26619232 320.56585574 C89.55061904 320.5660272 86.83504577 320.56624263 84.1194725 320.56649017 C83.11647018 320.56657383 83.11647018 320.56657383 82.09320518 320.56665917 C71.98798792 320.56773967 61.88279924 320.57705928 51.77759171 320.59067535 C40.28791253 320.60604145 28.79828638 320.61121747 17.30859889 320.60293725 C11.44274682 320.59901849 5.57700163 320.60001991 -0.28883743 320.6139946 C-5.65403499 320.62666011 -11.01904457 320.62560111 -16.3842416 320.61340389 C-18.32972104 320.61143408 -20.27521347 320.61458394 -22.22067462 320.62324825 C-24.85685529 320.63424952 -27.49236176 320.62691806 -30.12852287 320.61485672 C-31.27228875 320.62624951 -31.27228875 320.62624951 -32.439161 320.63787246 C-36.90082294 320.59353657 -39.76317219 320.02187672 -43.29418945 317.24291992 C-46.32656386 312.69435831 -45.62312125 308.21811211 -45.60668945 302.86791992 C-45.62280273 301.82635742 -45.63891602 300.78479492 -45.65551758 299.71166992 C-45.66166711 290.09380678 -45.66166711 290.09380678 -42.29418945 286.24291992 C-39.10594378 284.64879708 -35.66522283 285.14117257 -32.16918945 285.18041992 C-31.41508789 285.18493164 -30.66098633 285.18944336 -29.8840332 285.1940918 C-28.02071819 285.20588493 -26.1574439 285.2238205 -24.29418945 285.24291992 C-24.29570833 284.67252991 -24.29722722 284.10213989 -24.29879212 283.51446533 C-24.3883187 249.70301457 -24.45694288 215.89159078 -24.49845077 182.08004731 C-24.50345355 178.01959189 -24.50863085 173.9591367 -24.51391602 169.89868164 C-24.51496526 169.09032352 -24.5160145 168.2819654 -24.51709554 167.44911158 C-24.53449729 154.36299594 -24.56603371 141.27695064 -24.60280064 128.19087672 C-24.64021646 114.76177511 -24.66242666 101.33271033 -24.67054343 87.90355873 C-24.67602989 79.61808154 -24.69335373 71.33280317 -24.72585532 63.04738718 C-24.74701113 57.36454191 -24.7533871 51.68179931 -24.74819496 45.99891752 C-24.74563479 42.72088986 -24.7517307 39.44328231 -24.77101135 36.16530037 C-24.79091164 32.60764457 -24.78612742 29.05083954 -24.77520752 25.49316406 C-24.78685889 24.46201981 -24.79851025 23.43087555 -24.81051469 22.3684845 C-24.74825571 14.86437662 -23.31807834 9.26680881 -17.91918945 3.86791992 C-12.05336389 0.23669457 -6.69351048 -0.04395075 0 0 Z " fill="#47686F" transform="translate(52.294189453125,184.757080078125)"/>
<path d="M0 0 C0.86795197 -0.00902847 1.73590393 -0.01805695 2.63015747 -0.02735901 C4.46417804 -0.04184836 6.29825014 -0.05074498 8.13232422 -0.05444336 C10.92895166 -0.06633667 13.72336945 -0.11553005 16.51953125 -0.16601562 C18.30467677 -0.17548092 20.0898358 -0.18271545 21.875 -0.1875 C22.70643524 -0.20703232 23.53787048 -0.22656464 24.39450073 -0.24668884 C25.57569992 -0.23757225 25.57569992 -0.23757225 26.78076172 -0.22827148 C27.80857254 -0.23587746 27.80857254 -0.23587746 28.85714722 -0.24363708 C32.42971972 0.74868396 34.94736905 2.37676139 37.0703125 5.37109375 C37.94651834 8.89667772 37.86695259 12.33600282 37.81152344 15.95361328 C37.81894058 17.01932053 37.82635773 18.08502777 37.83399963 19.18302917 C37.85190803 22.70718238 37.82803265 26.2298055 37.8046875 29.75390625 C37.81086219 32.20906451 37.8199581 34.66421701 37.83184814 37.11935425 C37.85661373 43.58928127 37.84733287 50.05869272 37.82928467 56.52862549 C37.80591547 66.86241939 37.83317324 77.1961778 37.86200714 87.52993393 C37.86710041 91.12984889 37.85729994 94.72948308 37.84515381 98.32937622 C37.84534256 100.55698654 37.84583547 102.78459686 37.84667969 105.01220703 C37.8394136 106.00273575 37.83214752 106.99326447 37.82466125 108.0138092 C37.87313125 126.32949374 43.98055277 142.48738571 56.453125 155.94140625 C70.16497825 168.94782654 84.48118014 172.89254277 103.0703125 175.37109375 C103.0703125 192.53109375 103.0703125 209.69109375 103.0703125 227.37109375 C74.63200399 227.37109375 48.65616821 219.37843427 27.0703125 200.37109375 C26.25304687 199.6853125 25.43578125 198.99953125 24.59375 198.29296875 C2.6420809 179.39958173 -12.36114761 150.75565331 -15.18037415 121.79598999 C-15.34640744 119.06698674 -15.454766 116.34214759 -15.5390625 113.609375 C-15.59474396 111.98495232 -15.59474396 111.98495232 -15.65155029 110.32771301 C-16.17496438 92.82706926 -16.15401106 75.31181687 -16.16992188 57.80493164 C-16.17549157 52.54631681 -16.19976635 47.28794993 -16.22789383 42.02941418 C-16.24647393 37.94681541 -16.25172246 33.86427849 -16.25325775 29.78164101 C-16.25627542 27.84037168 -16.26427387 25.89910321 -16.27744293 23.95787621 C-16.29446921 21.26492821 -16.29263628 18.5726184 -16.28613281 15.87963867 C-16.2953476 15.08754501 -16.30456238 14.29545135 -16.3140564 13.47935486 C-16.27954337 8.92450949 -15.73147242 6.00520242 -12.9296875 2.37109375 C-9.26453642 -0.5290655 -4.46179464 0.02863883 0 0 Z " fill="#34BCFE" transform="translate(152.9296875,87.62890625)"/>
<path d="M0 0 C1.37415825 -0.00284752 1.37415825 -0.00284752 2.77607727 -0.00575256 C5.79050372 -0.00944408 8.80468694 0.00121744 11.8190918 0.01245117 C13.91562369 0.01364359 16.01215613 0.014096 18.10868835 0.01383972 C22.49404258 0.01540157 26.87931482 0.02367122 31.26464844 0.03710938 C36.89856055 0.05415122 42.53238307 0.05792207 48.16631794 0.05716419 C52.490706 0.05743537 56.81507429 0.06290733 61.1394558 0.07016563 C63.21798745 0.07335667 65.29652134 0.07532072 67.37505531 0.07605934 C70.26960745 0.07821535 73.16406234 0.08694189 76.05859375 0.09765625 C76.92454163 0.09720306 77.7904895 0.09674988 78.68267822 0.09628296 C84.59133185 0.12844122 84.59133185 0.12844122 85.70581055 1.24291992 C85.70581055 6.52291992 85.70581055 11.80291992 85.70581055 17.24291992 C55.01581055 17.24291992 24.32581055 17.24291992 -7.29418945 17.24291992 C-7.29418945 105.68291992 -7.29418945 194.12291992 -7.29418945 285.24291992 C-12.90418945 285.24291992 -18.51418945 285.24291992 -24.29418945 285.24291992 C-24.38545425 250.855317 -24.45623557 216.46774522 -24.49845077 182.08004731 C-24.50345355 178.01959189 -24.50863085 173.9591367 -24.51391602 169.89868164 C-24.51496526 169.09032352 -24.5160145 168.2819654 -24.51709554 167.44911158 C-24.53449729 154.36299594 -24.56603371 141.27695064 -24.60280064 128.19087672 C-24.64021646 114.76177511 -24.66242666 101.33271033 -24.67054343 87.90355873 C-24.67602989 79.61808154 -24.69335373 71.33280317 -24.72585532 63.04738718 C-24.74701113 57.36454191 -24.7533871 51.68179931 -24.74819496 45.99891752 C-24.74563479 42.72088986 -24.7517307 39.44328231 -24.77101135 36.16530037 C-24.79091164 32.60764457 -24.78612742 29.05083954 -24.77520752 25.49316406 C-24.78685889 24.46201981 -24.79851025 23.43087555 -24.81051469 22.3684845 C-24.74825571 14.86437662 -23.31807834 9.26680881 -17.91918945 3.86791992 C-12.05336389 0.23669457 -6.69351048 -0.04395075 0 0 Z " fill="#627E87" transform="translate(52.294189453125,184.757080078125)"/>
<path d="M0 0 C12.11787509 -0.06960003 24.23570239 -0.12286216 36.35373688 -0.15543652 C41.98101375 -0.17107287 47.60815356 -0.19227423 53.23535156 -0.22631836 C58.6688725 -0.25898395 64.10226184 -0.27686829 69.53587341 -0.28463173 C71.60585094 -0.29016229 73.6758215 -0.30096212 75.7457428 -0.31719017 C78.65161541 -0.33905996 81.55694857 -0.34196291 84.46289062 -0.34057617 C85.31309784 -0.351362 86.16330505 -0.36214783 87.03927612 -0.3732605 C92.92061744 -0.34301512 98.91340444 0.28255697 103.52866364 4.34583759 C107.39880591 8.74152669 109.25147462 13.03019996 109.24609566 18.84754658 C109.25007775 19.80150202 109.25405985 20.75545746 109.25816262 21.73832065 C109.24942409 23.29814482 109.24942409 23.29814482 109.24050903 24.88948059 C109.24221788 26.0003954 109.24392673 27.11131022 109.24568737 28.25588912 C109.24898665 31.98551799 109.23797115 35.71496772 109.22705078 39.44458008 C109.22648676 42.1152385 109.22671494 44.78588589 109.22793579 47.45654297 C109.22898426 53.2099627 109.22271159 58.96333706 109.21146011 64.71674538 C109.19520299 73.03519133 109.18999689 81.35361535 109.18748413 89.67207547 C109.18310736 103.16835898 109.16979875 116.6646183 109.15087891 130.16088867 C109.13251964 143.27091348 109.11836336 156.38093173 109.10986328 169.4909668 C109.10933783 170.29912898 109.10881239 171.10729117 109.10827102 171.93994311 C109.10566093 175.99427321 109.10313352 180.04860335 109.10064721 184.10293353 C109.07991528 217.73530672 109.04454152 251.36764999 109 285 C103.39 285 97.78 285 92 285 C92 196.56 92 108.12 92 17 C61.64 17 31.28 17 0 17 C0 11.39 0 5.78 0 0 Z " fill="#637E86" transform="translate(375,185)"/>
<path d="M0 0 C43.56 0 87.12 0 132 0 C128.97994613 19.63035014 122.34696398 36.20312363 105.9453125 48.2421875 C96.19816929 54.99458442 85.10385739 60.69175236 73 61 C71.81792969 61.05027344 70.63585937 61.10054688 69.41796875 61.15234375 C50.49082209 61.72631108 34.00184828 56.07489665 20 43 C7.74672938 30.87848498 1.71212859 17.12128592 0 0 Z " fill="#FEDF5F" transform="translate(190,202)"/>
<path d="M0 0 C1.30124062 -0.00006042 1.30124062 -0.00006042 2.62876892 -0.00012207 C4.45514202 0.00521937 6.28151559 0.02274315 8.10766602 0.05175781 C10.89736376 0.09367517 13.68464916 0.09281719 16.47460938 0.0859375 C18.25392296 0.09642908 20.03322416 0.10936701 21.8125 0.125 C22.64282242 0.12520142 23.47314484 0.12540283 24.32862854 0.12561035 C28.94108811 0.21957287 32.15550817 0.51743236 35.83984375 3.59375 C37.57761014 6.45964786 38.08696741 8.57122174 38.06689453 11.90332031 C38.06665283 12.75555176 38.06641113 13.6077832 38.06616211 14.48583984 C38.05081421 15.81542725 38.05081421 15.81542725 38.03515625 17.171875 C38.03314209 17.99349121 38.03112793 18.81510742 38.02905273 19.66162109 C38.01861125 22.72238775 37.99068864 25.78307465 37.96484375 28.84375 C37.92359375 35.69125 37.88234375 42.53875 37.83984375 49.59375 C20.34984375 49.59375 2.85984375 49.59375 -15.16015625 49.59375 C-15.28390625 42.436875 -15.40765625 35.28 -15.53515625 27.90625 C-15.58978027 25.65466064 -15.6444043 23.40307129 -15.70068359 21.08325195 C-15.71821325 19.2912002 -15.73350116 17.4991245 -15.74609375 15.70703125 C-15.77678955 14.78257202 -15.80748535 13.85811279 -15.83911133 12.90563965 C-15.84290191 8.23880552 -15.6794741 6.2460231 -12.69604492 2.4987793 C-8.70592773 -0.1715882 -4.66577916 -0.09235403 0 0 Z " fill="#EFEFEF" transform="translate(337.16015625,87.40625)"/>
<path d="M0 0 C0.86795197 -0.00902847 1.73590393 -0.01805695 2.63015747 -0.02735901 C4.46417804 -0.04184836 6.29825014 -0.05074498 8.13232422 -0.05444336 C10.92895166 -0.06633667 13.72336945 -0.11553005 16.51953125 -0.16601562 C18.30467677 -0.17548092 20.0898358 -0.18271545 21.875 -0.1875 C22.70643524 -0.20703232 23.53787048 -0.22656464 24.39450073 -0.24668884 C28.28530894 -0.21665927 31.32261295 0.07482788 34.60839844 2.27392578 C38.10027227 6.66681664 37.83750954 10.02541815 37.65625 15.484375 C37.65020752 16.34430054 37.64416504 17.20422607 37.63793945 18.09020996 C37.60665417 21.28849611 37.52288447 24.48609541 37.4453125 27.68359375 C37.3215625 34.84046875 37.1978125 41.99734375 37.0703125 49.37109375 C19.5803125 49.37109375 2.0903125 49.37109375 -15.9296875 49.37109375 C-15.9915625 42.54421875 -16.0534375 35.71734375 -16.1171875 28.68359375 C-16.14449951 26.53641846 -16.17181152 24.38924316 -16.19995117 22.17700195 C-16.20871654 20.46696535 -16.21636036 18.75692248 -16.22265625 17.046875 C-16.23800415 16.16559937 -16.25335205 15.28432373 -16.26916504 14.37634277 C-16.27120265 9.5872712 -16.18894758 6.17348726 -12.9296875 2.37109375 C-9.26453642 -0.5290655 -4.46179464 0.02863883 0 0 Z " fill="#EFEFEF" transform="translate(152.9296875,87.62890625)"/>
<path d="M0 0 C43.56 0 87.12 0 132 0 C132 5.61 132 11.22 132 17 C88.44 17 44.88 17 0 17 C0 11.39 0 5.78 0 0 Z " fill="#617E87" transform="translate(190,185)"/>
<path d="M0 0 C1.32 0.33 2.64 0.66 4 1 C2.38882099 10.43400191 -0.47059697 19.42506754 -3.34179688 28.5390625 C-3.69693359 29.69921875 -4.05207031 30.859375 -4.41796875 32.0546875 C-4.74563232 33.10124512 -5.0732959 34.14780273 -5.41088867 35.22607422 C-5.99583455 37.98038633 -5.95861951 39.39339905 -5 42 C-4.01604248 42.01981934 -3.03208496 42.03963867 -2.01831055 42.06005859 C1.63282839 42.13613987 5.28357009 42.224853 8.93432617 42.31738281 C10.51432451 42.35566221 12.09440969 42.39051697 13.67456055 42.421875 C15.94611645 42.46754876 18.21707509 42.52553784 20.48828125 42.5859375 C21.19463211 42.59748871 21.90098297 42.60903992 22.6287384 42.62094116 C26.27741393 42.73071048 27.88213546 42.92142364 31 45 C30.6071062 50.41556323 27.45411845 53.93753718 24.3125 58.125 C23.73234131 58.91269775 23.15218262 59.70039551 22.55444336 60.51196289 C21.32710675 62.17656389 20.09597918 63.83837554 18.86132812 65.49755859 C16.49043036 68.6850851 14.14017302 71.8875322 11.78930664 75.08984375 C10.05654472 77.44559642 8.31561812 79.795159 6.57421875 82.14453125 C4.06557761 85.53636961 1.59580423 88.95320902 -0.85546875 92.38671875 C-1.48654541 93.26336182 -2.11762207 94.14000488 -2.76782227 95.04321289 C-3.98136356 96.73023789 -5.18666865 98.42322641 -6.38256836 100.12280273 C-7.20253296 101.25697632 -7.20253296 101.25697632 -8.0390625 102.4140625 C-8.51553223 103.0838916 -8.99200195 103.7537207 -9.48291016 104.44384766 C-11.26440634 106.27121436 -12.51041297 106.62157205 -15 107 C-15.28858093 102.11426865 -14.29768151 98.25432022 -12.59375 93.73828125 C-12.22751526 92.72957222 -12.22751526 92.72957222 -11.85388184 91.70048523 C-11.07825212 89.56773585 -10.29004942 87.43994546 -9.5 85.3125 C-8.7116605 83.17378639 -7.92614634 81.03413911 -7.14611816 78.89237976 C-6.66168349 77.56381107 -6.17220443 76.23706829 -5.67712402 74.91242981 C-4.65208178 72.11486791 -4 70.00841183 -4 67 C-4.83249268 66.98018066 -5.66498535 66.96036133 -6.52270508 66.93994141 C-9.614765 66.86179258 -12.70643383 66.77509794 -15.7980957 66.68261719 C-17.7929536 66.62555908 -19.7880854 66.57835558 -21.78320312 66.53125 C-23.66362305 66.47324219 -23.66362305 66.47324219 -25.58203125 66.4140625 C-26.73936768 66.3826416 -27.8967041 66.3512207 -29.08911133 66.31884766 C-32 66 -32 66 -35 64 C-34.41921503 60.30398418 -33.40940419 57.56292492 -31.55078125 54.32421875 C-31.03918457 53.42550049 -30.52758789 52.52678223 -30.00048828 51.60083008 C-29.44345215 50.63943115 -28.88641602 49.67803223 -28.3125 48.6875 C-27.73741699 47.68291748 -27.16233398 46.67833496 -26.56982422 45.64331055 C-24.72231988 42.42352408 -22.86310111 39.21078431 -21 36 C-20.38205566 34.93426758 -19.76411133 33.86853516 -19.12744141 32.77050781 C-15.65865508 26.79562592 -12.17466426 20.829795 -8.68066406 14.86962891 C-5.78013535 9.9171573 -2.89036619 4.95840744 0 0 Z " fill="#FFC932" transform="translate(258,7)"/>
<path d="M0 0 C2.97 0 5.94 0 9 0 C9.33 1.65 9.66 3.3 10 5 C10.78375 4.360625 11.5675 3.72125 12.375 3.0625 C17.11127084 -0.65885566 21.1183243 -0.51498543 27 0 C30.83044709 1.46253434 33.20127629 3.08704266 36 6 C36.44988281 5.566875 36.89976562 5.13375 37.36328125 4.6875 C42.31408474 0.40143365 45.9057928 -0.79398593 52.44921875 -0.38671875 C57.37784126 0.36049967 60.01932692 1.78010008 63.13574219 5.65673828 C65.32418738 9.58138055 65.46441177 11.90308816 65.390625 16.3671875 C65.38496521 17.04677521 65.37930542 17.72636292 65.37347412 18.42654419 C65.35125351 20.57677549 65.30109198 22.72528074 65.25 24.875 C65.22991614 26.3411216 65.21166868 27.80726958 65.1953125 29.2734375 C65.15143811 32.84951008 65.08251443 36.42458631 65 40 C62.36 40 59.72 40 57 40 C56.98541748 39.20303711 56.97083496 38.40607422 56.95581055 37.58496094 C56.88132525 33.97281876 56.78466488 30.36160026 56.6875 26.75 C56.65366211 24.86861328 56.65366211 24.86861328 56.61914062 22.94921875 C56.58369141 21.74394531 56.54824219 20.53867187 56.51171875 19.296875 C56.48553467 18.18666992 56.45935059 17.07646484 56.43237305 15.93261719 C55.95332013 12.68338874 55.33508401 11.28396541 53 9 C48.00254575 7.68919233 46.17340604 7.381295 41.5625 9.8125 C38.96768028 11.73971393 38.96768028 11.73971393 38 14 C37.84588894 16.0307477 37.75017547 18.06606421 37.68359375 20.1015625 C37.62075195 21.91914063 37.62075195 21.91914063 37.55664062 23.7734375 C37.51732422 25.04445313 37.47800781 26.31546875 37.4375 27.625 C37.37272461 29.543125 37.37272461 29.543125 37.30664062 31.5 C37.20030114 34.66655348 37.09827167 37.83318753 37 41 C34.03 41 31.06 41 28 41 C27.97494385 40.13721436 27.9498877 39.27442871 27.92407227 38.38549805 C27.82888615 35.18176231 27.72965556 31.97818463 27.62768555 28.7746582 C27.58439782 27.38864017 27.54271836 26.00257094 27.50268555 24.61645508 C27.44483416 22.62308202 27.38070224 20.62989435 27.31640625 18.63671875 C27.27974854 17.43748779 27.24309082 16.23825684 27.20532227 15.00268555 C27.12266975 11.95005651 27.12266975 11.95005651 26 9 C21.10220406 7.99867283 18.05943744 7.45136275 13.5 9.8125 C10.64943912 12.30674077 10.07704512 12.98476339 9.79467773 16.70556641 C9.73969116 18.38658447 9.73969116 18.38658447 9.68359375 20.1015625 C9.64169922 21.31328125 9.59980469 22.525 9.55664062 23.7734375 C9.51732422 25.04445313 9.47800781 26.31546875 9.4375 27.625 C9.39431641 28.90375 9.35113281 30.1825 9.30664062 31.5 C9.20030114 34.66655348 9.09827167 37.83318753 9 41 C6.03 41 3.06 41 0 41 C0 27.47 0 13.94 0 0 Z " fill="#FFFCF6" transform="translate(254,387)"/>
<path d="M0 0 C12.54 0 25.08 0 38 0 C38 2.97 38 5.94 38 9 C28.43 9 18.86 9 9 9 C9 13.62 9 18.24 9 23 C17.58 23 26.16 23 35 23 C35 25.64 35 28.28 35 31 C26.42 31 17.84 31 9 31 C9 35.62 9 40.24 9 45 C18.9 45 28.8 45 39 45 C39 47.97 39 50.94 39 54 C26.13 54 13.26 54 0 54 C0 36.18 0 18.36 0 0 Z " fill="#FFFBF2" transform="translate(146,374)"/>
<path d="M0 0 C2.6837575 1.99475972 3.83545971 3.1784827 4.88671875 6.40234375 C5.78538241 12.96155554 5.424619 18.06976176 1.50390625 23.5078125 C-0.80563436 26.21343375 -3.2603922 28.72013812 -5.85546875 31.15234375 C-9.11661065 34.40220142 -12.08153995 37.93749656 -15.11328125 41.40234375 C-7.85328125 41.73234375 -0.59328125 42.06234375 6.88671875 42.40234375 C6.88671875 45.37234375 6.88671875 48.34234375 6.88671875 51.40234375 C-4.99328125 51.40234375 -16.87328125 51.40234375 -29.11328125 51.40234375 C-29.11328125 42.40234375 -29.11328125 42.40234375 -27.14135742 39.44042969 C-26.23877197 38.59770508 -25.33618652 37.75498047 -24.40625 36.88671875 C-23.92505203 36.42299866 -23.44385406 35.95927856 -22.94807434 35.48150635 C-21.41894949 34.01549894 -19.86234419 32.58367578 -18.30078125 31.15234375 C-16.75653102 29.70103339 -15.21886598 28.24326606 -13.68562317 26.78033447 C-12.29284808 25.45711628 -10.88353843 24.15136604 -9.47338867 22.84667969 C-6.30222157 19.56233863 -4.35312945 16.87141398 -3.61328125 12.33984375 C-3.87126059 9.24883233 -3.87126059 9.24883233 -6.23828125 7.02734375 C-9.65485199 5.09623855 -11.2481345 4.77129938 -15.11328125 5.40234375 C-19.33809871 7.67822605 -19.33809871 7.67822605 -22.11328125 11.40234375 C-26.82674279 9.91388221 -26.82674279 9.91388221 -28.27734375 7.32421875 C-28.55320312 6.69 -28.8290625 6.05578125 -29.11328125 5.40234375 C-19.88728452 -3.15974751 -11.60552414 -7.31168275 0 0 Z " fill="#FFFCF6" transform="translate(409.11328125,335.59765625)"/>
<path d="M0 0 C1.85202026 -0.00945648 1.85202026 -0.00945648 3.74145508 -0.019104 C5.09456525 -0.01552432 6.44767412 -0.01142238 7.80078125 -0.00683594 C9.18318754 -0.00818268 10.56559338 -0.01012329 11.94799805 -0.01263428 C14.84656276 -0.01558511 17.74500428 -0.0112893 20.64355469 -0.00195312 C24.36288762 0.00944152 28.08193193 0.00288181 31.80125427 -0.00909805 C34.65623152 -0.01631782 37.5111401 -0.01402822 40.36611938 -0.00884247 C41.73768142 -0.00750629 43.10924964 -0.0091526 44.48080444 -0.01380157 C46.39605595 -0.01886842 48.31132926 -0.00977925 50.2265625 0 C51.31751221 0.00159119 52.40846191 0.00318237 53.5324707 0.00482178 C56.11328125 0.25878906 56.11328125 0.25878906 58.11328125 2.25878906 C58.37890625 4.57128906 58.37890625 4.57128906 58.36328125 7.25878906 C58.37101562 8.58910156 58.37101562 8.58910156 58.37890625 9.94628906 C58.11328125 12.25878906 58.11328125 12.25878906 56.11328125 14.25878906 C53.5324707 14.51275635 53.5324707 14.51275635 50.2265625 14.51757812 C48.99188232 14.52388245 47.75720215 14.53018677 46.48510742 14.53668213 C45.13199725 14.53310245 43.77888838 14.52900051 42.42578125 14.52441406 C41.04337496 14.52576081 39.66096912 14.52770142 38.27856445 14.5302124 C35.37999974 14.53316324 32.48155822 14.52886742 29.58300781 14.51953125 C25.86367488 14.50813661 22.14463057 14.51469631 18.42530823 14.52667618 C15.57033098 14.53389594 12.7154224 14.53160634 9.86044312 14.52642059 C8.48888108 14.52508441 7.11731286 14.52673072 5.74575806 14.5313797 C3.83050655 14.53644654 1.91523324 14.52735737 0 14.51757812 C-1.09094971 14.51598694 -2.18189941 14.51439575 -3.3059082 14.51275635 C-5.88671875 14.25878906 -5.88671875 14.25878906 -7.88671875 12.25878906 C-8.15234375 9.94628906 -8.15234375 9.94628906 -8.13671875 7.25878906 C-8.141875 6.37191406 -8.14703125 5.48503906 -8.15234375 4.57128906 C-7.57083049 -0.49129697 -4.27385202 0.00623356 0 0 Z " fill="#FFFDFA" transform="translate(72.88671875,455.7412109375)"/>
<path d="M0 0 C1.85658891 1.60838183 2.09011936 2.88036236 2.4609375 5.265625 C0.8109375 6.585625 -0.8390625 7.905625 -2.5390625 9.265625 C-3.3434375 8.770625 -4.1478125 8.275625 -4.9765625 7.765625 C-9.34100322 5.92796575 -12.86674181 5.48115787 -17.5390625 6.265625 C-21.1385853 8.41002156 -22.98424783 10.41728281 -24.5390625 14.265625 C-24.78497142 18.84772797 -24.09354849 22.40706605 -21.6015625 26.265625 C-17.93141829 29.82455272 -14.92967855 29.5219649 -10.01171875 29.5078125 C-6.93960996 29.20691085 -5.09730975 27.92096146 -2.5390625 26.265625 C-0.3515625 26.828125 -0.3515625 26.828125 1.4609375 28.265625 C2.16181074 29.58129932 2.83326307 30.91349814 3.4609375 32.265625 C-3.03077 37.189358 -8.28174615 39.19465302 -16.48046875 38.7890625 C-22.36835347 37.78142961 -25.88374544 35.00806401 -29.9140625 30.765625 C-33.9669516 24.53041099 -34.44808869 18.55677259 -33.5390625 11.265625 C-31.36702312 5.35069633 -27.08360694 1.1557343 -21.5390625 -1.734375 C-14.25622689 -4.0865952 -6.7414974 -3.46705581 0 0 Z " fill="#FFFDF9" transform="translate(368.5390625,389.734375)"/>
<path d="M0 0 C12.87 0 25.74 0 39 0 C39 2.31 39 4.62 39 7 C26.13 7 13.26 7 0 7 C0 4.69 0 2.38 0 0 Z " fill="#FFFDFB" transform="translate(199,402)"/>
<path d="M0 0 C12.54 0 25.08 0 38 0 C38 2.31 38 4.62 38 7 C25.46 7 12.92 7 0 7 C0 4.69 0 2.38 0 0 Z " fill="#FFFCF5" transform="translate(199,388)"/>
</svg>
