<?xml version="1.0" encoding="UTF-8"?>
<svg version="1.1" xmlns="http://www.w3.org/2000/svg" width="128" height="128">
<path d="M0 0 C5.33266553 4.97854321 8.24088318 11.66475292 11 18.3125 C11 18.9725 11 19.6325 11 20.3125 C11.66 20.3125 12.32 20.3125 13 20.3125 C13.66 18.9925 14.32 17.6725 15 16.3125 C21.75 16.1875 21.75 16.1875 24 17.3125 C24 17.9725 24 18.6325 24 19.3125 C24.99 19.250625 25.98 19.18875 27 19.125 C32.50551012 19.13616736 37.19059598 20.82786081 41.4375 24.3125 C44.34617156 28.0355996 44.45404604 31.863752 44.4140625 36.421875 C43.24734574 44.56687882 37.93980768 51.91980771 33 58.3125 C34.423125 58.498125 34.423125 58.498125 35.875 58.6875 C39 59.3125 39 59.3125 41 61.3125 C40.979375 62.364375 40.95875 63.41625 40.9375 64.5 C40.74778451 68.33955485 40.74778451 68.33955485 42.5 71.625 C44.75714169 77.17380665 45.07723593 82.55956373 42.875 88.1875 C39.79132629 91.68233021 36.40640574 93.84369809 32 95.3125 C29.36383237 95.40929233 26.76034093 95.45174509 24.125 95.4375 C23.06345703 95.44330078 23.06345703 95.44330078 21.98046875 95.44921875 C18.19451956 95.44216857 14.67960763 95.22157953 11 94.3125 C11.33 94.9725 11.66 95.6325 12 96.3125 C12.5 99.625 12.5 99.625 12 103.3125 C10.43785587 104.84304006 8.79830068 105.85901244 6.9296875 106.9921875 C4.82698398 108.43087939 3.5544072 109.92937394 2 111.9375 C-0.91369799 115.46785365 -3.5054879 117.07263459 -8 118.3125 C-13.09898605 118.47437257 -16.00464792 117.71930806 -20.0625 114.625 C-25.33590618 109.63353831 -28.25255523 102.93212474 -31 96.3125 C-31 95.6525 -31 94.9925 -31 94.3125 C-31.66 94.3125 -32.32 94.3125 -33 94.3125 C-33.66 95.6325 -34.32 96.9525 -35 98.3125 C-41.75 98.4375 -41.75 98.4375 -44 97.3125 C-44 96.6525 -44 95.9925 -44 95.3125 C-45.155 95.395 -46.31 95.4775 -47.5 95.5625 C-53.01131809 95.5722892 -57.53241049 93.45647121 -61.66796875 89.86328125 C-64.54605725 86.51254478 -64.45098495 82.41228414 -64.4140625 78.203125 C-63.24734574 70.05812118 -57.93980768 62.70519229 -53 56.3125 C-54.423125 56.126875 -54.423125 56.126875 -55.875 55.9375 C-59 55.3125 -59 55.3125 -61 53.3125 C-60.979375 52.260625 -60.95875 51.20875 -60.9375 50.125 C-60.74778451 46.28544515 -60.74778451 46.28544515 -62.5 43 C-64.75714169 37.45119335 -65.07723593 32.06543627 -62.875 26.4375 C-59.79132629 22.94266979 -56.40640574 20.78130191 -52 19.3125 C-49.36383237 19.21570767 -46.76034093 19.17325491 -44.125 19.1875 C-43.41730469 19.18363281 -42.70960937 19.17976563 -41.98046875 19.17578125 C-38.19451956 19.18283143 -34.67960763 19.40342047 -31 20.3125 C-31.495 19.3225 -31.495 19.3225 -32 18.3125 C-32.5 15 -32.5 15 -32 11.3125 C-30.44272684 9.78673236 -28.80554287 8.77017895 -26.9453125 7.63671875 C-24.21983043 5.78142072 -22.3887501 3.43420307 -20.359375 0.86328125 C-14.83710002 -5.43655543 -6.26554711 -4.81126151 0 0 Z M-19.875 7.0625 C-21.10626611 9.52503221 -21.08884593 10.67507077 -21 13.375 C-21 17.3125 -21 17.3125 -22.375 19.1875 C-22.91125 19.55875 -23.4475 19.93 -24 20.3125 C-24.66 20.9725 -25.32 21.6325 -26 22.3125 C-23.81877494 23.18680519 -21.63250158 24.03658501 -19.4375 24.875 C-18.21933594 25.35066406 -17.00117187 25.82632813 -15.74609375 26.31640625 C-9.63953883 27.9401513 -4.83364118 26.45870835 0.9375 24.25 C1.89527344 23.88777344 2.85304688 23.52554687 3.83984375 23.15234375 C4.55269531 22.87519531 5.26554687 22.59804688 6 22.3125 C5.61919745 15.07725158 1.44560816 8.81924837 -3.5 3.75 C-10.51614173 -0.28428149 -14.27147162 1.83254018 -19.875 7.0625 Z M-58 28.3125 C-59.60243368 31.51736737 -59.34978009 34.82765387 -59 38.3125 C-58.04961347 41.71507055 -58.04961347 41.71507055 -56 44.3125 C-52.93638223 45.75218727 -52.93638223 45.75218727 -50 46.3125 C-49.67 48.6225 -49.34 50.9325 -49 53.3125 C-47.79004746 52.41885485 -46.58213889 51.52244221 -45.375 50.625 C-44.36566406 49.87669922 -44.36566406 49.87669922 -43.3359375 49.11328125 C-42.56507812 48.51902344 -41.79421875 47.92476562 -41 47.3125 C-39.948125 46.6009375 -38.89625 45.889375 -37.8125 45.15625 C-34.08242653 41.38473127 -33.92582876 38.62698165 -33.625 33.5 C-33.55667969 32.71173828 -33.48835938 31.92347656 -33.41796875 31.11132812 C-33.25412473 29.18030935 -33.1236741 27.24650701 -33 25.3125 C-36.22565944 23.69967028 -39.70940808 24.04462931 -43.25 24 C-44.37728516 23.95649414 -44.37728516 23.95649414 -45.52734375 23.91210938 C-50.82423779 23.85202244 -53.80140278 24.79845667 -58 28.3125 Z M22.5 25.8125 C21 27.3125 21 27.3125 17.3125 27.5 C15.6728125 27.4071875 15.6728125 27.4071875 14 27.3125 C13.67 26.6525 13.34 25.9925 13 25.3125 C12.79905995 36.46356808 12.79905995 36.46356808 17.921875 45.92578125 C21.07509067 48.79197516 24.27657267 51.23496984 28 53.3125 C31.90136909 52.01204364 32.49287369 50.39426649 34.625 46.9375 C35.23601562 45.96039063 35.84703125 44.98328125 36.4765625 43.9765625 C38.98667465 39.58708434 39.88824631 35.31986654 39 30.3125 C36.46546343 27.09295355 34.88702695 25.60817565 31 24.3125 C26.32502354 23.69813952 26.32502354 23.69813952 22.5 25.8125 Z M-28 26.3125 C-28.350625 27.55 -28.70125 28.7875 -29.0625 30.0625 C-29.25972656 30.75859375 -29.45695312 31.4546875 -29.66015625 32.171875 C-30.19536068 34.64073129 -30.19536068 34.64073129 -29 38.3125 C-24.71 36.0025 -20.42 33.6925 -16 31.3125 C-18.34914492 28.96335508 -19.95679446 28.58109643 -23.125 27.6875 C-24.03507812 27.42710938 -24.94515625 27.16671875 -25.8828125 26.8984375 C-26.58148438 26.70507812 -27.28015625 26.51171875 -28 26.3125 Z M7 26.3125 C3.37 27.6325 -0.26 28.9525 -4 30.3125 C-0.86217036 32.66587223 1.77729719 34.30934205 5.25 36 C6.14203125 36.43699219 7.0340625 36.87398437 7.953125 37.32421875 C8.62859375 37.65035156 9.3040625 37.97648437 10 38.3125 C9.88541307 36.87413249 9.75790884 35.43679034 9.625 34 C9.55539063 33.19949219 9.48578125 32.39898437 9.4140625 31.57421875 C9.10435574 29.04025559 9.10435574 29.04025559 7 26.3125 Z M-18.3125 37.0625 C-19.30926758 37.58457031 -19.30926758 37.58457031 -20.32617188 38.1171875 C-22.24369145 39.14138193 -24.11961406 40.22206669 -26 41.3125 C-26.96421875 41.81652344 -27.9284375 42.32054687 -28.921875 42.83984375 C-32.44042668 47.02639114 -31.95720306 51.82999842 -31.9375 57.125 C-31.93347168 58.21981689 -31.92944336 59.31463379 -31.92529297 60.44262695 C-31.68908561 66.69874326 -31.68908561 66.69874326 -29.10546875 72.2734375 C-26.46766453 74.1095154 -24.01165157 75.20467177 -21 76.3125 C-19.24759594 77.3292009 -17.49749034 78.34987649 -15.75 79.375 C-12.72334622 81.04575351 -11.57278093 81.4391727 -8.15625 80.68359375 C-4.53368381 79.10992948 -1.15613847 77.30422504 2.25 75.3125 C2.87390625 74.95671875 3.4978125 74.6009375 4.140625 74.234375 C6.69678644 72.75797141 8.90361651 71.40888349 11 69.3125 C12.34212666 61.24360054 13.61176065 49.43062882 9.1171875 42.34375 C6.46959313 40.51782285 4.01927655 39.40893105 1 38.3125 C-0.83924212 37.34447783 -2.67291663 36.3657799 -4.5 35.375 C-10.37558039 32.48369383 -12.73430596 34.06335659 -18.3125 37.0625 Z M-41.0625 52.8125 C-41.79597656 53.4621875 -42.52945313 54.111875 -43.28515625 54.78125 C-43.85105469 55.2865625 -44.41695312 55.791875 -45 56.3125 C-43.63783758 59.53215664 -42.27468847 61.12937435 -39.375 63.0625 C-37.704375 64.17625 -37.704375 64.17625 -36 65.3125 C-36 60.0325 -36 54.7525 -36 49.3125 C-37.99924273 49.3125 -39.65992223 51.56576421 -41.0625 52.8125 Z M16 49.3125 C16 54.5925 16 59.8725 16 65.3125 C20.18922532 62.53080618 20.18922532 62.53080618 24 59.3125 C24 57.9925 24 56.6725 24 55.3125 C22.25925466 53.52255931 22.25925466 53.52255931 20 52.0625 C18.68 51.155 17.36 50.2475 16 49.3125 Z M-50 61.3125 C-51.75406134 63.38470776 -51.75406134 63.38470776 -53.5 66 C-54.1084375 66.87011719 -54.716875 67.74023438 -55.34375 68.63671875 C-58.45250091 73.65911114 -60.1922362 78.4109308 -59 84.3125 C-56.46546343 87.53204645 -54.88702695 89.01682435 -51 90.3125 C-47.5 90.64583333 -47.5 90.64583333 -44 90.3125 C-43.505 89.8175 -43.01 89.3225 -42.5 88.8125 C-41 87.3125 -41 87.3125 -37.3125 87.125 C-35.6728125 87.2178125 -35.6728125 87.2178125 -34 87.3125 C-33.67 87.9725 -33.34 88.6325 -33 89.3125 C-32.78247666 78.15491615 -32.78247666 78.15491615 -37.95703125 68.734375 C-43.36526441 63.59015726 -43.36526441 63.59015726 -50 61.3125 Z M23.6875 65.125 C19.1851081 69.21064157 19.1851081 69.21064157 16.78515625 70.53125 C13.86041407 73.44959231 14.0637037 77.0166166 13.75 81 C13.67265625 81.79728516 13.5953125 82.59457031 13.515625 83.41601562 C13.32745715 85.38001757 13.16156116 87.34613056 13 89.3125 C16.09823641 90.86161821 19.35233391 90.53814397 22.75 90.5625 C23.80574219 90.5934375 23.80574219 90.5934375 24.8828125 90.625 C29.64664585 90.66041884 32.88200326 89.95097695 37 87.3125 C39.48784204 83.58073694 39.5143533 80.63143482 39 76.3125 C38.04961347 72.90992945 38.04961347 72.90992945 36 70.3125 C32.93638223 68.87281273 32.93638223 68.87281273 30 68.3125 C29.67 66.0025 29.34 63.6925 29 61.3125 C26.94973229 61.3125 25.09562742 63.84593172 23.6875 65.125 Z M-30 76.3125 C-29.88541307 77.75086751 -29.75790884 79.18820966 -29.625 80.625 C-29.55539063 81.42550781 -29.48578125 82.22601563 -29.4140625 83.05078125 C-29.10435574 85.58474441 -29.10435574 85.58474441 -27 88.3125 C-21.555 86.3325 -21.555 86.3325 -16 84.3125 C-19.13782964 81.95912777 -21.77729719 80.31565795 -25.25 78.625 C-26.14203125 78.18800781 -27.0340625 77.75101562 -27.953125 77.30078125 C-28.62859375 76.97464844 -29.3040625 76.64851563 -30 76.3125 Z M9 76.3125 C4.71 78.6225 0.42 80.9325 -4 83.3125 C-1.65085508 85.66164492 -0.04320554 86.04390357 3.125 86.9375 C4.03507812 87.19789062 4.94515625 87.45828125 5.8828125 87.7265625 C6.58148438 87.91992188 7.28015625 88.11328125 8 88.3125 C8.350625 87.075 8.70125 85.8375 9.0625 84.5625 C9.25972656 83.86640625 9.45695312 83.1703125 9.66015625 82.453125 C10.19536068 79.98426871 10.19536068 79.98426871 9 76.3125 Z M-19.25 89.8125 C-19.8996875 90.05097656 -20.549375 90.28945312 -21.21875 90.53515625 C-22.81461884 91.12187274 -24.4076061 91.71641672 -26 92.3125 C-25.09097019 99.73624347 -21.69898399 105.54604141 -16.5 110.875 C-13.4637638 112.62083582 -11.51981479 113.3125 -8 113.3125 C-4.20602485 111.30392492 -0.94483955 109.20217909 1 105.3125 C1.04940927 103.95923503 1.04453714 102.60343408 1 101.25 C1 97.3125 1 97.3125 2.375 95.4375 C2.91125 95.06625 3.4475 94.695 4 94.3125 C4.66 93.6525 5.32 92.9925 6 92.3125 C3.75267898 91.47125684 1.50261215 90.63935168 -0.75 89.8125 C-1.38421875 89.57402344 -2.0184375 89.33554688 -2.671875 89.08984375 C-9.03204857 86.77103047 -13.09759072 87.49909407 -19.25 89.8125 Z " fill="#3D6E7C" transform="translate(74,6.6875)"/>
<path d="M0 0 C4.36045847 2.22136563 7.13277421 4.43567029 9 9 C9.53635899 13.82723092 9.52017901 15.97890786 7.3125 20.3125 C3.73770791 24.4669881 1.56223989 25.82641779 -3.9375 26.4375 C-8.2150513 26.25994127 -10.73416458 24.81013746 -14 22 C-16.88516342 18.5378039 -17.53917865 15.51203116 -17.3515625 10.9921875 C-16.57919747 6.61545234 -14.06326048 3.8860504 -10.75 1.125 C-7.10164042 -0.36751074 -3.84747819 -0.67896674 0 0 Z " fill="#FFC040" transform="translate(68,51)"/>
<path d="M0 0 C6.875 1.875 6.875 1.875 8 3 C8.57755776 9.23762376 8.57755776 9.23762376 6.4375 12.0625 C2.85187218 13.44158762 0.50939906 12.28228043 -3 11 C-3.75 7.75 -3.75 7.75 -4 4 C-2.0625 1.5625 -2.0625 1.5625 0 0 Z " fill="#FD7146" transform="translate(78,100)"/>
<path d="M0 0 C0.75 3.25 0.75 3.25 1 7 C-0.9375 9.4375 -0.9375 9.4375 -3 11 C-9.875 9.125 -9.875 9.125 -11 8 C-11.57755776 1.76237624 -11.57755776 1.76237624 -9.4375 -1.0625 C-5.85187218 -2.44158762 -3.50939906 -1.28228043 0 0 Z " fill="#1C8EC6" transform="translate(53,17)"/>
<path d="M0 0 C1.093125 0.28875 2.18625 0.5775 3.3125 0.875 C4.81912097 3.88824195 4.49020373 6.55786377 4.3125 9.875 C2.3125 11.875 2.3125 11.875 -1.1875 12.0625 C-4.6875 11.875 -4.6875 11.875 -6.6875 10.875 C-7.5625 7.5625 -7.5625 7.5625 -7.6875 3.875 C-5.44364293 0.13523821 -4.37686363 -0.14836826 0 0 Z " fill="#1B90C7" transform="translate(36.6875,93.125)"/>
<path d="M0 0 C3.5 0.1875 3.5 0.1875 5.5 1.1875 C6.375 4.5 6.375 4.5 6.5 8.1875 C5 10.6875 5 10.6875 2.5 12.1875 C-1.1875 12.0625 -1.1875 12.0625 -4.5 11.1875 C-6.00662097 8.17425805 -5.67770373 5.50463623 -5.5 2.1875 C-3.5 0.1875 -3.5 0.1875 0 0 Z " fill="#FC6E45" transform="translate(92.5,22.8125)"/>
<path d="M0 0 C2 2 2 2 2.375 4.9375 C2 8 2 8 0.375 9.875 C-2.62505385 11.29607814 -4.71697841 11.35685017 -8 11 C-10 9 -10 9 -10.375 5.5625 C-10 2 -10 2 -8.375 0 C-5.18820399 -1.34180884 -3.28890107 -0.92947204 0 0 Z " fill="#1B8EC6" transform="translate(113,66)"/>
<path d="M0 0 C2 2 2 2 2.375 5.4375 C2 9 2 9 0.375 11 C-2.81179601 12.34180884 -4.71109893 11.92947204 -8 11 C-10 9 -10 9 -10.375 6.0625 C-10 3 -10 3 -8.375 1.125 C-5.37494615 -0.29607814 -3.28302159 -0.35685017 0 0 Z " fill="#FD7046" transform="translate(23,51)"/>
<path d="M0 0 C4.12796115 0.2381516 6.34632633 0.39660892 9.4375 3.25 C11.10291199 6.1811251 11.37775893 7.6946094 11 11 C9.68 11 8.36 11 7 11 C6.690625 9.8553125 6.690625 9.8553125 6.375 8.6875 C4.57929296 5.17770897 2.56863688 4.47400219 -1 3 C-0.67 2.01 -0.34 1.02 0 0 Z " fill="#FFD37B" transform="translate(63,54)"/>
<path d="M0 0 C1 1 1 1 1.0625 3.5625 C1.041875 4.366875 1.02125 5.17125 1 6 C-1.3125 7.125 -1.3125 7.125 -4 8 C-4.99 7.34 -5.98 6.68 -7 6 C-7.1875 2.875 -7.1875 2.875 -7 0 C-4.31633121 -1.3418344 -2.84719317 -0.73004953 0 0 Z " fill="#FFC13E" transform="translate(114,107)"/>
<path d="M0 0 C1.875 0.6875 1.875 0.6875 2.875 1.6875 C3.0625 4.125 3.0625 4.125 2.875 6.6875 C2.215 7.3475 1.555 8.0075 0.875 8.6875 C-3.68055556 8.13194444 -3.68055556 8.13194444 -5.125 6.6875 C-5.375 4.25 -5.375 4.25 -5.125 1.6875 C-2.125 -0.3125 -2.125 -0.3125 0 0 Z " fill="#FFC13F" transform="translate(28.125,10.3125)"/>
<path d="M0 0 C4.55555556 0.55555556 4.55555556 0.55555556 6 2 C6.04063832 3.66617115 6.042721 5.33388095 6 7 C3.6875 8.125 3.6875 8.125 1 9 C0.01 8.34 -0.98 7.68 -2 7 C-2.3125 4.5 -2.3125 4.5 -2 2 C-1.34 1.34 -0.68 0.68 0 0 Z " fill="#FFBF40" transform="translate(29,113)"/>
</svg>
