<?xml version="1.0" encoding="UTF-8"?>
<svg version="1.1" xmlns="http://www.w3.org/2000/svg" width="128" height="128">
<path d="M0 0 C1.06992188 0.474375 2.13984375 0.94875 3.2421875 1.4375 C19.75466286 9.51889971 30.60523995 22.82755446 37 40 C41.30117326 53.9146728 41.09524021 71.68480263 35 85 C34.525625 86.06992188 34.05125 87.13984375 33.5625 88.2421875 C25.53996296 104.63439059 12.16715507 115.82260053 -5 122 C-22.41824347 127.05634913 -41.59366026 125.04005104 -57.41772461 116.46020508 C-72.85764719 107.52172136 -82.86748581 93.36904589 -88.11328125 76.3984375 C-91.19627114 63.38867917 -90.58043482 47.19059274 -85 35 C-84.2884375 33.39511719 -84.2884375 33.39511719 -83.5625 31.7578125 C-75.48110029 15.24533714 -62.17244554 4.39476005 -45 -2 C-31.0853272 -6.30117326 -13.31519737 -6.09524021 0 0 Z M-37.75 28.3125 C-41.59681581 32.90730778 -43.61043202 36.77179485 -43.3515625 42.9140625 C-42.4995451 47.96936571 -40.19875705 51.83198031 -36.5625 55.375 C-31.49459906 58.58879084 -27.03605054 59.87979335 -21 59 C-14.79384065 57.08777009 -11.06592755 53.67130804 -8 48 C-6.21948755 42.65846265 -6.29490877 37.92911611 -8.5625 32.8125 C-10.90478026 28.66658233 -13.62454734 25.9381758 -18 24 C-25.76861869 21.98915175 -31.50548217 23.06142819 -37.75 28.3125 Z M-51.48828125 66.36328125 C-57.1448959 72.30140705 -60.76212767 78.88505917 -62 87 C-61.73198143 89.86557953 -61.73198143 89.86557953 -61 92 C-43.13294838 99.14682065 -21.80137803 98.11629728 -3.0625 95.6875 C-2.13284424 95.56995361 -1.20318848 95.45240723 -0.24536133 95.33129883 C4.47312304 94.6503926 8.08141063 93.92053529 12 91 C11.66553486 80.96604584 7.87711162 72.55692067 0.8125 65.375 C-1.39592092 63.31032245 -3.4713428 61.68577147 -6 60 C-9.01386259 60.38280916 -11.34007541 61.65697167 -14 63.0625 C-19.63525174 65.57939404 -24.92050708 65.95534889 -31 65 C-33.81902043 63.89607466 -36.33738095 62.6330753 -38.94140625 61.09375 C-44.49775591 58.14160976 -47.58862397 62.73688463 -51.48828125 66.36328125 Z " fill="#26D0FE" transform="translate(89,4)"/>
<path d="M0 0 C2.0861289 0.79471577 4.14311549 1.66584013 6.1875 2.5625 C13.47342424 5.33416986 20.95133573 4.98968377 28.0625 1.9375 C28.82433594 1.55464844 29.58617187 1.17179687 30.37109375 0.77734375 C33.23800282 -0.21141692 34.76853025 0.03547775 37.625 1 C44.48213757 6.56638226 47.59433345 14.50975673 48.625 23 C26.54823006 26.57180099 6.70176994 26.57180099 -15.375 23 C-13.75694768 14.86564976 -11.62899263 7.70991065 -5.375 1.875 C-2.375 0 -2.375 0 0 0 Z " fill="#34C4FE" transform="translate(47.375,70)"/>
<path d="M0 0 C3.43615111 2.12017834 5.80717883 4.09622164 7 8 C7.46225901 12.77667642 7.49973779 15.01903323 5.3125 19.3125 C1.73770791 23.4669881 -0.43776011 24.82641779 -5.9375 25.4375 C-10.2150513 25.25994127 -12.73416458 23.81013746 -16 21 C-18.8842989 17.53884132 -19.5437838 14.51164855 -19.34765625 9.9921875 C-18.5397312 5.36250463 -16.00588644 2.72517394 -12.3125 0.0625 C-7.92156804 -1.34591214 -4.4347481 -1.21096443 0 0 Z " fill="#1CD9FE" transform="translate(70,33)"/>
</svg>
